<svg width="20" height="20" viewBox="0 0 20 20" fill="none" xmlns="http://www.w3.org/2000/svg">
<path d="M16.1672 5.55337L13.3263 2.66875C13.2735 2.61519 13.2108 2.57272 13.1418 2.54377C13.0728 2.51481 12.9989 2.49994 12.9243 2.5H7.24247C6.94108 2.5 6.65204 2.62157 6.43894 2.83795C6.22583 3.05434 6.1061 3.34783 6.1061 3.65385V4.80769H4.96974C4.66836 4.80769 4.37932 4.92926 4.16621 5.14565C3.9531 5.36203 3.83337 5.65552 3.83337 5.96154V16.3462C3.83337 16.6522 3.9531 16.9457 4.16621 17.162C4.37932 17.3784 4.66836 17.5 4.96974 17.5H12.9243C13.2257 17.5 13.5147 17.3784 13.7278 17.162C13.9409 16.9457 14.0606 16.6522 14.0606 16.3462V15.1923H15.197C15.4984 15.1923 15.7874 15.0707 16.0005 14.8544C16.2137 14.638 16.3334 14.3445 16.3334 14.0385V5.96154C16.3334 5.88575 16.3188 5.8107 16.2903 5.74066C16.2618 5.67063 16.2199 5.60698 16.1672 5.55337ZM12.9243 16.3462H4.96974V5.96154H10.4165L12.9243 8.50793V14.6038C12.9243 14.6082 12.9243 14.6118 12.9243 14.6154C12.9243 14.619 12.9243 14.6226 12.9243 14.6269V16.3462ZM15.197 14.0385H14.0606V8.26923C14.0607 8.19345 14.0461 8.11839 14.0175 8.04836C13.989 7.97832 13.9472 7.91468 13.8945 7.86106L11.0535 4.97644C11.0007 4.92288 10.9381 4.88041 10.8691 4.85146C10.8001 4.82251 10.7262 4.80763 10.6516 4.80769H7.24247V3.65385H12.6892L15.197 6.20024V14.0385ZM11.2197 11.7308C11.2197 11.8838 11.1599 12.0305 11.0533 12.1387C10.9468 12.2469 10.8022 12.3077 10.6516 12.3077H7.24247C7.09177 12.3077 6.94725 12.2469 6.8407 12.1387C6.73415 12.0305 6.67428 11.8838 6.67428 11.7308C6.67428 11.5778 6.73415 11.431 6.8407 11.3228C6.94725 11.2146 7.09177 11.1538 7.24247 11.1538H10.6516C10.8022 11.1538 10.9468 11.2146 11.0533 11.3228C11.1599 11.431 11.2197 11.5778 11.2197 11.7308ZM11.2197 14.0385C11.2197 14.1915 11.1599 14.3382 11.0533 14.4464C10.9468 14.5546 10.8022 14.6154 10.6516 14.6154H7.24247C7.09177 14.6154 6.94725 14.5546 6.8407 14.4464C6.73415 14.3382 6.67428 14.1915 6.67428 14.0385C6.67428 13.8855 6.73415 13.7387 6.8407 13.6305C6.94725 13.5223 7.09177 13.4615 7.24247 13.4615H10.6516C10.8022 13.4615 10.9468 13.5223 11.0533 13.6305C11.1599 13.7387 11.2197 13.8855 11.2197 14.0385Z" fill="#3B3B3B"/>
</svg>
