<svg width="22" height="22" viewBox="0 0 22 22" fill="none" xmlns="http://www.w3.org/2000/svg">
<path d="M18.6084 12.952V17.1794C18.6084 17.4998 18.4797 17.807 18.2505 18.0335C18.0212 18.26 17.7104 18.3873 17.3862 18.3873H5.16399C4.83983 18.3873 4.52896 18.26 4.29974 18.0335C4.07053 17.807 3.94176 17.4998 3.94176 17.1794V12.952C3.94176 12.7918 4.00615 12.6382 4.12075 12.5249C4.23536 12.4117 4.3908 12.348 4.55288 12.348C4.71495 12.348 4.87039 12.4117 4.985 12.5249C5.0996 12.6382 5.16399 12.7918 5.16399 12.952V17.1794H17.3862V12.952C17.3862 12.7918 17.4506 12.6382 17.5652 12.5249C17.6798 12.4117 17.8352 12.348 17.9973 12.348C18.1594 12.348 18.3148 12.4117 18.4294 12.5249C18.544 12.6382 18.6084 12.7918 18.6084 12.952Z" fill="#0366FF"/>
<path fill-rule="evenodd" clip-rule="evenodd" d="M4.55288 12.4397C4.41476 12.4397 4.28252 12.4939 4.18519 12.5901C4.08789 12.6863 4.03343 12.8165 4.03343 12.952V17.1794C4.03343 17.4751 4.15228 17.7589 4.36418 17.9683C4.57612 18.1777 4.8638 18.2956 5.16399 18.2956H17.3862C17.6864 18.2956 17.9741 18.1777 18.186 17.9683C18.3979 17.7589 18.5168 17.4751 18.5168 17.1794V12.952C18.5168 12.8165 18.4623 12.6863 18.365 12.5901C18.2677 12.4939 18.1354 12.4397 17.9973 12.4397C17.8592 12.4397 17.727 12.4939 17.6296 12.5901C17.5323 12.6863 17.4779 12.8165 17.4779 12.952V17.2711H5.07232V12.952C5.07232 12.8165 5.01786 12.6863 4.92056 12.5901C4.82323 12.4939 4.69099 12.4397 4.55288 12.4397ZM4.05632 12.4597C4.1882 12.3294 4.36684 12.2564 4.55288 12.2564C4.73892 12.2564 4.91755 12.3294 5.04943 12.4597C5.18134 12.5901 5.25565 12.7671 5.25565 12.952V17.0877H17.2945V12.952C17.2945 12.7671 17.3689 12.5901 17.5008 12.4597C17.6326 12.3294 17.8113 12.2564 17.9973 12.2564C18.1834 12.2564 18.362 12.3294 18.4939 12.4597C18.6258 12.5901 18.7001 12.7671 18.7001 12.952V17.1794C18.7001 17.5244 18.5614 17.8551 18.3149 18.0987C18.0684 18.3423 17.7343 18.4789 17.3862 18.4789H5.16399C4.81587 18.4789 4.48179 18.3423 4.23531 18.0987C3.98879 17.8551 3.8501 17.5244 3.8501 17.1794V12.952C3.8501 12.7671 3.92441 12.5901 4.05632 12.4597Z" fill="#0366FF"/>
<path d="M11.0273 12.195C10.9488 12.1651 10.8774 12.1214 10.8173 12.0662L7.58235 9.10071C7.46095 8.98942 7.39274 8.83847 7.39274 8.68108C7.39274 8.52369 7.46095 8.37275 7.58235 8.26146C7.70376 8.15017 7.86841 8.08764 8.0401 8.08764C8.21179 8.08764 8.37645 8.15017 8.49786 8.26146L10.6281 10.215V3.34311C10.6281 3.18581 10.6963 3.03495 10.8176 2.92372C10.9389 2.81249 11.1035 2.75 11.2751 2.75C11.4467 2.75 11.6113 2.81249 11.7326 2.92372C11.8539 3.03495 11.9221 3.18581 11.9221 3.34311V10.215L14.0523 8.26146C14.1125 8.20635 14.1838 8.16264 14.2624 8.13282C14.3409 8.10299 14.4251 8.08764 14.5101 8.08764C14.5951 8.08764 14.6793 8.10299 14.7578 8.13282C14.8364 8.16264 14.9077 8.20635 14.9678 8.26146C15.028 8.31656 15.0756 8.38198 15.1082 8.45398C15.1407 8.52598 15.1575 8.60315 15.1575 8.68108C15.1575 8.75901 15.1407 8.83618 15.1082 8.90818C15.0756 8.98018 15.028 9.0456 14.9678 9.10071L11.7328 12.0662C11.6728 12.1214 11.6014 12.1651 11.5229 12.195C11.4443 12.2248 11.3601 12.2402 11.2751 12.2402C11.1901 12.2402 11.1059 12.2248 11.0273 12.195Z" fill="#0366FF"/>
</svg>
