<svg width="24" height="24" viewBox="0 0 24 24" fill="none" xmlns="http://www.w3.org/2000/svg">
<path d="M18.8646 10.9552H18.7959V6.79458C18.7959 6.26424 18.5889 5.76569 18.213 5.39071L15.8981 3.08152C15.5221 2.70651 15.0223 2.5 14.4907 2.5H7.3944C6.29691 2.5 5.40408 3.39062 5.40408 4.48539V10.9552H5.33535C4.59904 10.9552 4 11.5528 4 12.2873V16.7121C4 17.4466 4.59904 18.0441 5.33535 18.0441H5.40404V18.5146C5.40404 19.6094 6.29687 20.5 7.39436 20.5H16.8056C17.9031 20.5 18.7959 19.6094 18.7959 18.5146V18.0441H18.8646C19.6009 18.0441 20.2 17.4466 20.2 16.7121V12.2874C20.2 11.5528 19.601 10.9552 18.8646 10.9552ZM15.5895 4.26493L17.1323 5.80398H15.7077C15.6425 5.80398 15.5895 5.75106 15.5895 5.6861V4.26493ZM6.46111 4.48539C6.46111 3.97204 6.87973 3.55445 7.39436 3.55445H14.4907C14.5046 3.55445 14.5185 3.55487 14.5324 3.55547V5.68606C14.5324 6.33252 15.0597 6.85839 15.7077 6.85839H17.7389V10.9552H6.46111V4.48539ZM17.7389 18.5147C17.7389 19.0281 17.3202 19.4457 16.8056 19.4457H7.39436C6.87977 19.4457 6.46111 19.0281 6.46111 18.5147V18.0442H17.7388V18.5147H17.7389ZM19.143 16.7122C19.1429 16.8652 19.0181 16.9898 18.8646 16.9898H18.2678C18.2677 16.9898 18.2675 16.9898 18.2674 16.9898C18.2673 16.9898 18.2672 16.9898 18.2671 16.9898H5.33535C5.1819 16.9898 5.05703 16.8652 5.05703 16.7122V12.2874C5.05703 12.1343 5.18186 12.0098 5.33532 12.0098H18.8646C19.0181 12.0098 19.1429 12.1343 19.1429 12.2874L19.143 16.7122Z" fill="white"/>
<path d="M10.2369 12.8338C10.0034 12.6334 9.69282 12.5331 9.30545 12.5331H8.18121C8.08704 12.5331 8.01099 12.5585 7.95308 12.609C7.8951 12.6596 7.8662 12.7192 7.8662 12.7878V16.2334C7.8662 16.3165 7.90779 16.3806 7.99111 16.4258C8.07432 16.471 8.17392 16.4935 8.28983 16.4935C8.40564 16.4935 8.50521 16.471 8.58852 16.4258C8.67177 16.3806 8.71343 16.3166 8.71343 16.2334V15.0633H9.25111C9.65299 15.0633 9.97614 14.9613 10.2206 14.7572C10.465 14.5532 10.5872 14.2362 10.5872 13.8064V13.7793C10.5872 13.3495 10.4704 13.0343 10.2369 12.8338ZM9.73994 13.8713C9.73994 14.2326 9.57697 14.4131 9.25111 14.4131H8.71346V13.27H9.25114C9.57701 13.27 9.73997 13.4507 9.73997 13.8118L9.73994 13.8713Z" fill="white"/>
<path d="M13.2592 12.842C13.0166 12.6361 12.6926 12.5331 12.2871 12.5331H11.3258C11.2171 12.5331 11.1284 12.5585 11.0596 12.609C10.9908 12.6596 10.9564 12.7192 10.9564 12.7877V16.2388C10.9564 16.3075 10.9908 16.3671 11.0596 16.4176C11.1284 16.4683 11.2171 16.4935 11.3258 16.4935H12.2871C12.6925 16.4935 13.0166 16.3905 13.2592 16.1846C13.5017 15.9788 13.6231 15.6556 13.6231 15.2149V13.8117C13.6231 13.3711 13.5017 13.0479 13.2592 12.842ZM12.7758 15.2149C12.7758 15.5761 12.6129 15.7567 12.287 15.7567H11.8037V13.27H12.287C12.6129 13.27 12.7758 13.4507 12.7758 13.8118V15.2149Z" fill="white"/>
<path d="M16.6047 12.6415C16.5613 12.5693 16.4979 12.5332 16.4146 12.5332H14.5301C14.4287 12.5332 14.3417 12.5558 14.2694 12.601C14.1969 12.6462 14.1608 12.7102 14.1608 12.7933V16.2335C14.1608 16.3166 14.2024 16.3807 14.2857 16.4259C14.3689 16.4711 14.4685 16.4936 14.5844 16.4936C14.7002 16.4936 14.7998 16.4711 14.8831 16.4259C14.9663 16.3807 15.008 16.3167 15.008 16.2335V14.8357H15.8281C15.9113 14.8357 15.9747 14.8032 16.0182 14.7382C16.0616 14.6732 16.0834 14.5992 16.0834 14.5161C16.0834 14.4259 16.0607 14.3481 16.0155 14.2831C15.9702 14.2181 15.9077 14.1856 15.8281 14.1856H15.008V13.27H16.4146C16.4942 13.27 16.5567 13.234 16.602 13.1617C16.6473 13.0894 16.6699 13.001 16.6699 12.8962C16.6699 12.7987 16.6482 12.7138 16.6047 12.6415Z" fill="white"/>
</svg>
