<svg width="24" height="24" viewBox="0 0 24 24" fill="none" xmlns="http://www.w3.org/2000/svg">
<path d="M12.9214 3.13726C12.7931 3.02446 12.6233 2.97766 12.459 3.01006L3.459 4.81013C3.19237 4.86293 3 5.11014 3 5.39936V18.5999C3 18.8879 3.19237 19.1363 3.459 19.1891L12.459 20.9892C12.4928 20.9964 12.5288 21 12.5625 21C12.6919 21 12.8201 20.952 12.9214 20.862C13.0508 20.748 13.125 20.5776 13.125 20.4V3.59928C13.125 3.42047 13.0508 3.25127 12.9214 3.13726ZM12 19.6763L4.125 18.1019V5.89738L12 4.32291V19.6763Z" fill="white"/>
<path d="M20.4375 5.39936H12.5625C12.252 5.39936 12 5.66817 12 5.99938C12 6.33059 12.252 6.59941 12.5625 6.59941H19.875V17.3999H12.5625C12.252 17.3999 12 17.6687 12 17.9999C12 18.3311 12.252 18.5999 12.5625 18.5999H20.4375C20.748 18.5999 21 18.3311 21 17.9999V5.99938C21 5.66817 20.748 5.39936 20.4375 5.39936Z" fill="white"/>
<path d="M18.1875 7.79946H12.5625C12.252 7.79946 12 8.06827 12 8.39948C12 8.73069 12.252 8.99951 12.5625 8.99951H18.1875C18.498 8.99951 18.75 8.73069 18.75 8.39948C18.75 8.06827 18.498 7.79946 18.1875 7.79946Z" fill="white"/>
<path d="M18.1875 10.1996H12.5625C12.252 10.1996 12 10.4684 12 10.7996C12 11.1308 12.252 11.3996 12.5625 11.3996H18.1875C18.498 11.3996 18.75 11.1308 18.75 10.7996C18.75 10.4684 18.498 10.1996 18.1875 10.1996Z" fill="white"/>
<path d="M18.1875 12.5997H12.5625C12.252 12.5997 12 12.8685 12 13.1997C12 13.5309 12.252 13.7997 12.5625 13.7997H18.1875C18.498 13.7997 18.75 13.5309 18.75 13.1997C18.75 12.8685 18.498 12.5997 18.1875 12.5997Z" fill="white"/>
<path d="M18.1875 14.9998H12.5625C12.252 14.9998 12 15.2686 12 15.5998C12 15.931 12.252 16.1998 12.5625 16.1998H18.1875C18.498 16.1998 18.75 15.931 18.75 15.5998C18.75 15.2686 18.498 14.9998 18.1875 14.9998Z" fill="white"/>
<path d="M10.3744 9.0031C10.0763 8.9707 9.78713 9.20351 9.75338 9.53233L9.45075 12.4388L8.589 9.98835C8.42363 9.52033 7.69913 9.52033 7.53488 9.98835L6.62025 12.5913L6.36937 10.7144C6.3255 10.3856 6.0375 10.1528 5.73263 10.2056C5.4255 10.2524 5.21175 10.556 5.25563 10.8836L5.81813 15.0838C5.85413 15.3562 6.05888 15.5674 6.31425 15.5962C6.57525 15.6238 6.8115 15.4678 6.9015 15.211L8.0625 11.9084L9.2235 15.211C9.30675 15.4462 9.51825 15.5998 9.75 15.5998C9.77363 15.5998 9.79612 15.5986 9.81975 15.5938C10.0774 15.5602 10.2799 15.3406 10.3091 15.0658L10.8716 9.66553C10.9054 9.33672 10.6838 9.04031 10.3744 9.0031Z" fill="white"/>
</svg>
