<svg width="24" height="24" viewBox="0 0 24 24" fill="none" xmlns="http://www.w3.org/2000/svg">
<path fill-rule="evenodd" clip-rule="evenodd" d="M7.08036 4.23214C6.96694 4.23214 6.875 4.32409 6.875 4.43751V8.13393C6.875 8.47413 6.59917 8.74996 6.25893 8.74996C5.91868 8.74996 5.64286 8.47413 5.64286 8.13393V4.43751C5.64286 3.64359 6.28645 3 7.08036 3H18.5803C19.3743 3 20.0178 3.6436 20.0178 4.43751V19.2232C20.0178 20.0171 19.3743 20.6607 18.5803 20.6607H7.08036C6.28645 20.6607 5.64286 20.0171 5.64286 19.2232V15.5268C5.64286 15.1866 5.91868 14.9107 6.25893 14.9107C6.59917 14.9107 6.875 15.1866 6.875 15.5268V19.2232C6.875 19.3366 6.96693 19.4286 7.08036 19.4286H18.5803C18.6938 19.4286 18.7857 19.3366 18.7857 19.2232V4.43751C18.7857 4.32408 18.6938 4.23214 18.5803 4.23214H7.08036Z" fill="white"/>
<path fill-rule="evenodd" clip-rule="evenodd" d="M15.0893 8.13394C15.0893 7.79369 15.3651 7.51786 15.7054 7.51786H16.9375C17.2777 7.51786 17.5536 7.79369 17.5536 8.13394C17.5536 8.47414 17.2777 8.74996 16.9375 8.74996H15.7054C15.3651 8.74996 15.0893 8.47414 15.0893 8.13394Z" fill="white"/>
<path fill-rule="evenodd" clip-rule="evenodd" d="M13.8571 11.4196C13.8571 11.0794 14.133 10.8036 14.4732 10.8036H16.9375C17.2777 10.8036 17.5536 11.0794 17.5536 11.4196C17.5536 11.7599 17.2777 12.0357 16.9375 12.0357H14.4732C14.133 12.0357 13.8571 11.7599 13.8571 11.4196Z" fill="white"/>
<path fill-rule="evenodd" clip-rule="evenodd" d="M13.8571 14.7054C13.8571 14.3651 14.133 14.0893 14.4732 14.0893H16.9375C17.2777 14.0893 17.5536 14.3651 17.5536 14.7054C17.5536 15.0456 17.2777 15.3214 16.9375 15.3214H14.4732C14.133 15.3214 13.8571 15.0456 13.8571 14.7054Z" fill="white"/>
<path fill-rule="evenodd" clip-rule="evenodd" d="M4 8.13394C4 7.79369 4.27583 7.51786 4.61607 7.51786H12.009C12.3492 7.51786 12.625 7.79369 12.625 8.13394V15.5268C12.625 15.867 12.3492 16.1428 12.009 16.1428H4.61607C4.27583 16.1428 4 15.867 4 15.5268V8.13394ZM5.23214 8.74996V14.9107H11.3928V8.74996H5.23214Z" fill="white"/>
<path fill-rule="evenodd" clip-rule="evenodd" d="M6.64473 10.1626C6.88531 9.92202 7.2754 9.92202 7.51598 10.1626L9.98027 12.6269C10.2209 12.8675 10.2209 13.2575 9.98027 13.4981C9.73967 13.7387 9.34958 13.7387 9.10898 13.4981L6.64473 11.0338C6.40414 10.7932 6.40414 10.4032 6.64473 10.1626Z" fill="white"/>
<path fill-rule="evenodd" clip-rule="evenodd" d="M9.98027 10.1626C10.2209 10.4032 10.2209 10.7932 9.98027 11.0338L7.51598 13.4981C7.2754 13.7387 6.88531 13.7387 6.64473 13.4981C6.40414 13.2575 6.40414 12.8675 6.64473 12.6269L9.10898 10.1626C9.34958 9.92202 9.73967 9.92202 9.98027 10.1626Z" fill="white"/>
</svg>
