<svg width="16" height="16" viewBox="0 0 16 16" fill="none" xmlns="http://www.w3.org/2000/svg">
<path d="M15.6083 9.95196V14.1794C15.6083 14.4997 15.4795 14.807 15.2503 15.0335C15.0211 15.26 14.7102 15.3872 14.3861 15.3872H2.16386C1.83971 15.3872 1.52883 15.26 1.29962 15.0335C1.07041 14.807 0.941642 14.4997 0.941642 14.1794V9.95196C0.941642 9.79179 1.00603 9.63818 1.12063 9.52492C1.23524 9.41166 1.39068 9.34803 1.55275 9.34803C1.71483 9.34803 1.87027 9.41166 1.98487 9.52492C2.09948 9.63818 2.16386 9.79179 2.16386 9.95196V14.1794H14.3861V9.95196C14.3861 9.79179 14.4505 9.63818 14.5651 9.52492C14.6797 9.41166 14.8351 9.34803 14.9972 9.34803C15.1593 9.34803 15.3147 9.41166 15.4293 9.52492C15.5439 9.63818 15.6083 9.79179 15.6083 9.95196Z" fill="#F35488"/>
<path fill-rule="evenodd" clip-rule="evenodd" d="M1.55275 9.4397C1.41464 9.4397 1.2824 9.49393 1.18507 9.59012C1.08777 9.68627 1.03331 9.81645 1.03331 9.95196V14.1794C1.03331 14.4751 1.15215 14.7589 1.36406 14.9683C1.576 15.1777 1.86367 15.2956 2.16386 15.2956H14.3861C14.6863 15.2956 14.974 15.1777 15.1859 14.9683C15.3978 14.7589 15.5166 14.4751 15.5166 14.1794V9.95196C15.5166 9.81645 15.4622 9.68627 15.3649 9.59012C15.2676 9.49393 15.1353 9.4397 14.9972 9.4397C14.8591 9.4397 14.7268 9.49393 14.6295 9.59012C14.5322 9.68627 14.4778 9.81645 14.4778 9.95196V14.2711H2.0722V9.95196C2.0722 9.81645 2.01774 9.68627 1.92044 9.59012C1.82311 9.49393 1.69087 9.4397 1.55275 9.4397ZM1.0562 9.45972C1.18808 9.32939 1.36671 9.25637 1.55275 9.25637C1.73879 9.25637 1.91743 9.32939 2.04931 9.45972C2.18122 9.59008 2.25553 9.76712 2.25553 9.95196V14.0877H14.2944V9.95196C14.2944 9.76712 14.3687 9.59008 14.5006 9.45972C14.6325 9.32939 14.8112 9.25637 14.9972 9.25637C15.1832 9.25637 15.3619 9.32939 15.4938 9.45972C15.6257 9.59008 15.7 9.76712 15.7 9.95196V14.1794C15.7 14.5244 15.5613 14.8551 15.3148 15.0987C15.0683 15.3423 14.7342 15.4789 14.3861 15.4789H2.16386C1.81575 15.4789 1.48167 15.3423 1.23519 15.0987C0.98867 14.8551 0.849976 14.5244 0.849976 14.1794V9.95196C0.849976 9.76712 0.924285 9.59008 1.0562 9.45972Z" fill="#F35488"/>
<path d="M8.52275 0.711866C8.6013 0.741714 8.67265 0.785461 8.73274 0.840606L11.9677 3.80615C12.0891 3.91744 12.1573 4.06838 12.1573 4.22577C12.1573 4.38316 12.0891 4.5341 11.9677 4.6454C11.8463 4.75669 11.6817 4.81921 11.51 4.81921C11.3383 4.81921 11.1736 4.75669 11.0522 4.6454L8.92199 2.69184L8.92199 9.56374C8.92199 9.72105 8.85382 9.87191 8.73249 9.98313C8.61115 10.0944 8.44658 10.1569 8.27499 10.1569C8.1034 10.1569 7.93883 10.0944 7.81749 9.98313C7.69616 9.87191 7.62799 9.72105 7.62799 9.56374L7.62799 2.69184L5.49775 4.64539C5.43764 4.7005 5.36627 4.74421 5.28773 4.77404C5.20919 4.80386 5.12501 4.81921 5.04 4.81921C4.95498 4.81921 4.8708 4.80386 4.79226 4.77404C4.71372 4.74421 4.64236 4.7005 4.58224 4.64539C4.52213 4.59029 4.47445 4.52487 4.44192 4.45287C4.40938 4.38087 4.39264 4.3037 4.39264 4.22577C4.39264 4.14784 4.40938 4.07067 4.44192 3.99867C4.47445 3.92667 4.52213 3.86125 4.58224 3.80615L7.81724 0.840606C7.87733 0.785461 7.94868 0.741714 8.02723 0.711866C8.10577 0.682018 8.18997 0.666656 8.27499 0.666656C8.36002 0.666657 8.44421 0.682018 8.52275 0.711866Z" fill="#F35488"/>
</svg>
