<svg width="22" height="22" viewBox="0 0 22 22" fill="none" xmlns="http://www.w3.org/2000/svg">
<path d="M18.6083 12.952V17.1794C18.6083 17.4997 18.4795 17.807 18.2503 18.0335C18.0211 18.26 17.7102 18.3872 17.3861 18.3872H5.16386C4.83971 18.3872 4.52883 18.26 4.29962 18.0335C4.07041 17.807 3.94164 17.4997 3.94164 17.1794V12.952C3.94164 12.7918 4.00603 12.6382 4.12063 12.5249C4.23524 12.4117 4.39068 12.348 4.55275 12.348C4.71483 12.348 4.87027 12.4117 4.98487 12.5249C5.09948 12.6382 5.16386 12.7918 5.16386 12.952V17.1794H17.3861V12.952C17.3861 12.7918 17.4505 12.6382 17.5651 12.5249C17.6797 12.4117 17.8351 12.348 17.9972 12.348C18.1593 12.348 18.3147 12.4117 18.4293 12.5249C18.5439 12.6382 18.6083 12.7918 18.6083 12.952Z" fill="#F35488"/>
<path fill-rule="evenodd" clip-rule="evenodd" d="M4.55275 12.4397C4.41464 12.4397 4.2824 12.4939 4.18507 12.5901C4.08777 12.6863 4.03331 12.8164 4.03331 12.952V17.1794C4.03331 17.4751 4.15215 17.7589 4.36406 17.9683C4.576 18.1777 4.86367 18.2956 5.16386 18.2956H17.3861C17.6863 18.2956 17.974 18.1777 18.1859 17.9683C18.3978 17.7589 18.5166 17.4751 18.5166 17.1794V12.952C18.5166 12.8164 18.4622 12.6863 18.3649 12.5901C18.2676 12.4939 18.1353 12.4397 17.9972 12.4397C17.8591 12.4397 17.7268 12.4939 17.6295 12.5901C17.5322 12.6863 17.4778 12.8164 17.4778 12.952V17.2711H5.0722V12.952C5.0722 12.8164 5.01774 12.6863 4.92044 12.5901C4.82311 12.4939 4.69087 12.4397 4.55275 12.4397ZM4.0562 12.4597C4.18808 12.3294 4.36671 12.2564 4.55275 12.2564C4.73879 12.2564 4.91743 12.3294 5.04931 12.4597C5.18122 12.5901 5.25553 12.7671 5.25553 12.952V17.0877H17.2944V12.952C17.2944 12.7671 17.3687 12.5901 17.5006 12.4597C17.6325 12.3294 17.8112 12.2564 17.9972 12.2564C18.1832 12.2564 18.3619 12.3294 18.4938 12.4597C18.6257 12.5901 18.7 12.7671 18.7 12.952V17.1794C18.7 17.5244 18.5613 17.8551 18.3148 18.0987C18.0683 18.3423 17.7342 18.4789 17.3861 18.4789H5.16386C4.81575 18.4789 4.48167 18.3423 4.23519 18.0987C3.98867 17.8551 3.84998 17.5244 3.84998 17.1794V12.952C3.84998 12.7671 3.92428 12.5901 4.0562 12.4597Z" fill="#F35488"/>
<path d="M11.5228 3.71187C11.6013 3.74171 11.6727 3.78546 11.7327 3.84061L14.9677 6.80615C15.0891 6.91744 15.1573 7.06838 15.1573 7.22577C15.1573 7.38316 15.0891 7.5341 14.9677 7.6454C14.8463 7.75669 14.6817 7.81921 14.51 7.81921C14.3383 7.81921 14.1736 7.75669 14.0522 7.6454L11.922 5.69184L11.922 12.5637C11.922 12.721 11.8538 12.8719 11.7325 12.9831C11.6112 13.0944 11.4466 13.1569 11.275 13.1569C11.1034 13.1569 10.9388 13.0944 10.8175 12.9831C10.6962 12.8719 10.628 12.721 10.628 12.5637L10.628 5.69184L8.49775 7.64539C8.43764 7.7005 8.36627 7.74421 8.28773 7.77404C8.20919 7.80386 8.12501 7.81921 8.04 7.81921C7.95498 7.81921 7.8708 7.80386 7.79226 7.77404C7.71372 7.74421 7.64236 7.7005 7.58224 7.64539C7.52213 7.59029 7.47445 7.52487 7.44192 7.45287C7.40938 7.38087 7.39264 7.3037 7.39264 7.22577C7.39264 7.14784 7.40938 7.07067 7.44192 6.99867C7.47445 6.92667 7.52213 6.86125 7.58224 6.80615L10.8172 3.84061C10.8773 3.78546 10.9487 3.74171 11.0272 3.71187C11.1058 3.68202 11.19 3.66666 11.275 3.66666C11.36 3.66666 11.4442 3.68202 11.5228 3.71187Z" fill="#F35488"/>
</svg>
